<?xml version="1.0" encoding="UTF-8"?>
<svg width="1397px" height="310px" viewBox="0 0 1397 310" version="1.1" xmlns="http://www.w3.org/2000/svg" xmlns:xlink="http://www.w3.org/1999/xlink">
    <!-- Generator: Sketch 47 (45396) - http://www.bohemiancoding.com/sketch -->
    <title>svglogo white</title>
    <desc>Created with Sketch.</desc>
    <defs>
        <linearGradient x1="50%" y1="0%" x2="50%" y2="100%" id="linearGradient-1">
            <stop stop-color="#666666" offset="0%"></stop>
            <stop stop-color="#FFFFFF" offset="50.0067009%"></stop>
            <stop stop-color="#666666" offset="100%"></stop>
        </linearGradient>
    </defs>
    <g id="Page-1" stroke="none" stroke-width="1" fill="none" fill-rule="evenodd">
        <g id="svglogo-white">
            <g id="ws" transform="translate(51.000000, 59.000000)">
                <g id="score" transform="translate(553.000000, 2.000000)">
                    <g id="S">
                        <rect id="Rectangle-2" fill="#000000" fill-rule="nonzero" x="0" y="0" width="139.613401" height="189.547486" rx="15"></rect>
                        <g id="Rectangle" transform="translate(4.000000, 5.000000)">
                            <g id="path-1-link" fill-rule="nonzero" fill="#000000">
                                <rect id="path-1" x="0.50365809" y="0.12290503" width="130.606085" height="179.301676" rx="5"></rect>
                            </g>
                            <g id="path-1-link" fill="#434344">
                                <rect id="path-1" x="0.50365809" y="0.12290503" width="130.606085" height="179.301676" rx="5"></rect>
                            </g>
                        </g>
                        <g id="Rectangle-3" transform="translate(3.000000, 74.000000)">
                            <g id="path-4-link" fill="url(#linearGradient-1)">
                                <rect id="path-4" x="0.75304841" y="0.6480447" width="6.00487746" height="40.9832402"></rect>
                            </g>
                            <rect id="Rectangle-path" stroke="#000000" x="1.25304841" y="1.1480447" width="5.00487746" height="39.9832402"></rect>
                        </g>
                        <g id="Rectangle-3" transform="translate(129.000000, 74.000000)">
                            <g id="path-5-link" fill="url(#linearGradient-1)">
                                <rect id="path-5" x="0.855475" y="0.6480447" width="6.00487746" height="40.9832402"></rect>
                            </g>
                            <rect id="Rectangle-path" stroke="#000000" x="1.355475" y="1.1480447" width="5.00487746" height="39.9832402"></rect>
                        </g>
                        <path d="M104.815136,67.549162 L104.815136,58.2254749 C104.815136,40.5294972 90.1782472,28.5418994 69.4914444,28.5418994 C48.609483,28.5418994 33.7774357,40.1489385 33.7774357,58.2254749 C33.7774357,76.4922905 39.2418742,80.6784358 52.1223363,95.5202235 L72.4188221,115.880112 C77.4929436,121.588492 80.4203213,126.916313 80.4203213,133.956648 C80.4203213,141.758101 75.5413584,146.134525 69.4914444,146.134525 C63.2463718,146.134525 58.5625674,142.138659 58.5625674,133.956648 L58.5625674,121.588492 L33.9725942,121.588492 L33.9725942,135.478883 C33.9725942,154.506816 49.7804341,165.352737 69.4914444,165.352737 C89.0072961,165.352737 105.59577,154.697095 105.59577,135.478883 C105.59577,119.685698 99.545856,112.455084 89.7879302,101.609162 L65.3931155,74.3992179 C59.7335185,68.12 58.5625674,63.7435754 58.5625674,58.0351955 C58.5625674,51.946257 63.2463718,47.5698324 69.4914444,47.5698324 C75.3461999,47.5698324 80.4203213,52.7073743 80.4203213,62.0310615 L80.4203213,67.549162 L104.815136,67.549162 Z" id="Shape" fill="#FFFFFF" fill-rule="nonzero"></path>
                        <rect id="Rectangle-4" fill="#000000" fill-rule="nonzero" x="9.75792587" y="93.6759777" width="120.097549" height="2.9273743"></rect>
                    </g>
                    <g id="C" transform="translate(150.872546, 0.000000)">
                        <rect id="Rectangle-2" fill="#000000" fill-rule="nonzero" x="0" y="0" width="139.613401" height="189.547486" rx="15"></rect>
                        <g id="Rectangle" transform="translate(4.000000, 5.000000)">
                            <g id="path-6-link" fill-rule="nonzero" fill="#000000">
                                <rect id="path-6" x="0.50365809" y="0.12290503" width="130.606085" height="179.301676" rx="5"></rect>
                            </g>
                            <g id="path-6-link" fill="#434344">
                                <rect id="path-6" x="0.50365809" y="0.12290503" width="130.606085" height="179.301676" rx="5"></rect>
                            </g>
                        </g>
                        <g id="Rectangle-3" transform="translate(3.000000, 74.000000)">
                            <g id="path-8-link" fill="url(#linearGradient-1)">
                                <rect id="path-8" x="0.75304841" y="0.6480447" width="6.00487746" height="40.9832402"></rect>
                            </g>
                            <rect id="Rectangle-path" stroke="#000000" x="1.25304841" y="1.1480447" width="5.00487746" height="39.9832402"></rect>
                        </g>
                        <g id="Rectangle-3" transform="translate(129.000000, 74.000000)">
                            <g id="path-9-link" fill="url(#linearGradient-1)">
                                <rect id="path-9" x="0.855475" y="0.6480447" width="6.00487746" height="40.9832402"></rect>
                            </g>
                            <rect id="Rectangle-path" stroke="#000000" x="1.355475" y="1.1480447" width="5.00487746" height="39.9832402"></rect>
                        </g>
                        <path d="M106.571563,65.953743 L106.571563,55.4883799 C106.571563,41.9785475 95.4475272,25.6145251 70.857554,25.6145251 C43.9256786,25.6145251 33.7774357,41.9785475 33.7774357,55.4883799 L33.7774357,132.551508 C33.7774357,145.871061 43.9256786,162.235084 70.857554,162.235084 C95.4475272,162.235084 106.571563,145.871061 106.571563,132.361229 L106.571563,121.895866 L81.9815895,121.895866 L81.9815895,132.361229 C81.9815895,136.357095 77.8832606,143.207151 70.857554,143.207151 C62.2705792,143.207151 58.5625674,136.357095 58.5625674,132.361229 L58.5625674,55.4883799 C58.5625674,51.492514 62.2705792,44.6424581 70.857554,44.6424581 C77.8832606,44.6424581 81.9815895,51.492514 81.9815895,55.4883799 L81.9815895,65.953743 L106.571563,65.953743 Z" id="Shape" fill="#FFFFFF" fill-rule="nonzero"></path>
                        <rect id="Rectangle-4" fill="#000000" fill-rule="nonzero" x="9.75792587" y="93.6759777" width="120.097549" height="2.9273743"></rect>
                    </g>
                    <g id="O" transform="translate(300.994482, 0.000000)">
                        <rect id="Rectangle-2" fill="#000000" fill-rule="nonzero" x="0" y="0" width="139.613401" height="189.547486" rx="15"></rect>
                        <g id="Rectangle" transform="translate(4.000000, 5.000000)">
                            <g id="path-10-link" fill-rule="nonzero" fill="#000000">
                                <rect id="path-10" x="0.50365809" y="0.12290503" width="130.606085" height="179.301676" rx="5"></rect>
                            </g>
                            <g id="path-10-link" fill="#434344">
                                <rect id="path-10" x="0.50365809" y="0.12290503" width="130.606085" height="179.301676" rx="5"></rect>
                            </g>
                        </g>
                        <g id="Rectangle-3" transform="translate(3.000000, 74.000000)">
                            <g id="path-12-link" fill="url(#linearGradient-1)">
                                <rect id="path-12" x="0.75304841" y="0.6480447" width="6.00487746" height="40.9832402"></rect>
                            </g>
                            <rect id="Rectangle-path" stroke="#000000" x="1.25304841" y="1.1480447" width="5.00487746" height="39.9832402"></rect>
                        </g>
                        <g id="Rectangle-3" transform="translate(129.000000, 74.000000)">
                            <g id="path-13-link" fill="url(#linearGradient-1)">
                                <rect id="path-13" x="0.855475" y="0.6480447" width="6.00487746" height="40.9832402"></rect>
                            </g>
                            <rect id="Rectangle-path" stroke="#000000" x="1.355475" y="1.1480447" width="5.00487746" height="39.9832402"></rect>
                        </g>
                        <path d="M71.0226881,25.6145251 C95.4175028,25.6145251 106.34638,41.5979888 106.34638,55.2981006 L106.34638,132.17095 C106.34638,145.871061 95.4175028,162.235084 71.0226881,162.235084 C44.0908127,162.235084 34.5280454,145.871061 34.5280454,132.17095 L34.5280454,55.2981006 C34.5280454,41.5979888 44.0908127,25.6145251 71.0226881,25.6145251 Z M81.9515651,131.790391 L81.9515651,55.4883799 C81.9515651,51.492514 78.0483947,44.2618994 71.0226881,44.2618994 C62.4357133,44.2618994 58.92286,51.492514 58.92286,55.1078212 L58.92286,131.790391 C58.92286,136.166816 62.4357133,143.207151 71.0226881,143.207151 C78.0483947,143.207151 81.9515651,135.786257 81.9515651,131.790391 Z" id="Shape" fill="#FFFFFF" fill-rule="nonzero"></path>
                        <rect id="Rectangle-4" fill="#000000" fill-rule="nonzero" x="9.75792587" y="93.6759777" width="120.097549" height="2.9273743"></rect>
                    </g>
                    <g id="R" transform="translate(451.867029, 0.000000)">
                        <rect id="Rectangle-2" fill="#000000" fill-rule="nonzero" x="0" y="0" width="139.613401" height="189.547486" rx="15"></rect>
                        <g id="Rectangle" transform="translate(4.000000, 5.000000)">
                            <g id="path-14-link" fill-rule="nonzero" fill="#000000">
                                <rect id="path-14" x="0.50365809" y="0.12290503" width="130.606085" height="179.301676" rx="5"></rect>
                            </g>
                            <g id="path-14-link" fill="#434344">
                                <rect id="path-14" x="0.50365809" y="0.12290503" width="130.606085" height="179.301676" rx="5"></rect>
                            </g>
                        </g>
                        <g id="Rectangle-3" transform="translate(3.000000, 74.000000)">
                            <g id="path-16-link" fill="url(#linearGradient-1)">
                                <rect id="path-16" x="0.75304841" y="0.6480447" width="6.00487746" height="40.9832402"></rect>
                            </g>
                            <rect id="Rectangle-path" stroke="#000000" x="1.25304841" y="1.1480447" width="5.00487746" height="39.9832402"></rect>
                        </g>
                        <g id="Rectangle-3" transform="translate(129.000000, 74.000000)">
                            <g id="path-17-link" fill="url(#linearGradient-1)">
                                <rect id="path-17" x="0.855475" y="0.6480447" width="6.00487746" height="40.9832402"></rect>
                            </g>
                            <rect id="Rectangle-path" stroke="#000000" x="1.355475" y="1.1480447" width="5.00487746" height="39.9832402"></rect>
                        </g>
                        <path d="M109.874245,161.73743 L84.503638,161.73743 L61.2797744,108.078659 L53.4734337,108.078659 L53.4734337,161.73743 L29.2737776,161.73743 L29.2737776,28.5418994 L70.0619077,28.5418994 C93.4809298,28.5418994 104.604965,45.2864804 104.604965,66.5977654 C104.604965,86.3868156 95.822832,99.1355307 84.113321,104.843911 L109.874245,161.73743 Z M53.4734337,47.5698324 L53.4734337,87.9090503 L61.2797744,87.9090503 C77.0876143,87.9090503 81.3811017,86.006257 81.3811017,66.5977654 C81.3811017,55.9421229 78.844041,47.5698324 69.2812736,47.5698324 L53.4734337,47.5698324 Z" id="Shape" fill="#FFFFFF" fill-rule="nonzero"></path>
                        <rect id="Rectangle-4" fill="#000000" fill-rule="nonzero" x="9.75792587" y="93.6759777" width="120.097549" height="2.9273743"></rect>
                    </g>
                    <g id="E" transform="translate(601.988965, 0.000000)">
                        <rect id="Rectangle-2" fill="#000000" fill-rule="nonzero" x="0" y="0" width="139.613401" height="189.547486" rx="15"></rect>
                        <g id="Rectangle" transform="translate(4.000000, 5.000000)">
                            <g id="path-18-link" fill-rule="nonzero" fill="#000000">
                                <rect id="path-18" x="0.50365809" y="0.12290503" width="130.606085" height="179.301676" rx="5"></rect>
                            </g>
                            <g id="path-18-link" fill="#434344">
                                <rect id="path-18" x="0.50365809" y="0.12290503" width="130.606085" height="179.301676" rx="5"></rect>
                            </g>
                        </g>
                        <g id="Rectangle-3" transform="translate(3.000000, 74.000000)">
                            <g id="path-20-link" fill="url(#linearGradient-1)">
                                <rect id="path-20" x="0.75304841" y="0.6480447" width="6.00487746" height="40.9832402"></rect>
                            </g>
                            <rect id="Rectangle-path" stroke="#000000" x="1.25304841" y="1.1480447" width="5.00487746" height="39.9832402"></rect>
                        </g>
                        <g id="Rectangle-3" transform="translate(129.000000, 74.000000)">
                            <g id="path-21-link" fill="url(#linearGradient-1)">
                                <rect id="path-21" x="0.855475" y="0.6480447" width="6.00487746" height="40.9832402"></rect>
                            </g>
                            <rect id="Rectangle-path" stroke="#000000" x="1.355475" y="1.1480447" width="5.00487746" height="39.9832402"></rect>
                        </g>
                        <polygon id="Shape" fill="#FFFFFF" fill-rule="nonzero" points="97.9695757 47.5698324 97.9695757 28.5418994 39.0317035 28.5418994 39.0317035 161.73743 100.701795 161.73743 100.701795 142.709497 63.4265181 142.709497 63.4265181 99.3258101 88.2116498 99.3258101 88.2116498 80.2978771 63.4265181 80.2978771 63.4265181 47.5698324"></polygon>
                        <rect id="Rectangle-4" fill="#000000" fill-rule="nonzero" x="9.75792587" y="93.6759777" width="120.097549" height="2.9273743"></rect>
                    </g>
                </g>
                <g id="what’s" fill="#FFFFFF">
                    <path d="M65.5136719,51 L94.3222656,51 L79.9667969,118.96875 C79.2506474,122.15887 78.8925781,124.5677 78.8925781,126.195312 C78.8925781,128.213552 79.4296821,129.824864 80.5039062,131.029297 C81.5781303,132.23373 83.3196494,132.835938 85.7285156,132.835938 C88.9837402,132.835938 92.108709,131.696626 95.1035156,129.417969 C98.0983222,127.139312 100.865222,124.128274 103.404297,120.384766 C105.943372,116.641257 108.254547,112.393253 110.337891,107.640625 C112.421234,102.887997 114.195305,98.0377852 115.660156,93.0898438 C117.125007,88.1419023 118.264319,83.3079663 119.078125,78.5878906 C119.891931,73.8678149 120.298828,69.6849141 120.298828,66.0390625 C120.168619,66.364585 119.826826,66.6575508 119.273437,66.9179688 C118.720049,67.1783867 118.117842,67.3899731 117.466797,67.5527344 C116.815752,67.7154956 116.164717,67.8294268 115.513672,67.8945312 C114.862627,67.9596357 114.341799,67.9921875 113.951172,67.9921875 C112.779291,67.9921875 111.737635,67.6829458 110.826172,67.0644531 C109.914709,66.4459604 109.149743,65.6484424 108.53125,64.671875 C107.912757,63.6953076 107.457033,62.6048237 107.164062,61.4003906 C106.871092,60.1959575 106.724609,59.0078184 106.724609,57.8359375 C106.724609,54.7109219 107.717438,52.1230571 109.703125,50.0722656 C111.688812,48.0214741 114.830057,46.9960937 119.126953,46.9960937 C121.535819,46.9960937 123.537752,47.4843701 125.132812,48.4609375 C126.727873,49.4375049 128.013667,50.7395752 128.990234,52.3671875 C129.966802,53.9947998 130.666665,55.85025 131.089844,57.9335937 C131.513023,60.0169375 131.724609,62.1653535 131.724609,64.3789062 C131.724609,69.7174746 131.268885,75.5930669 130.357422,82.0058594 C129.445959,88.4186519 127.997406,94.8801758 126.011719,101.390625 C124.026032,107.901074 121.519546,114.199839 118.492187,120.287109 C115.464829,126.374379 111.835308,131.777971 107.603516,136.498047 C103.371724,141.218123 98.5215117,145.010402 93.0527344,147.875 C87.583957,150.739598 81.4642265,152.171875 74.6933594,152.171875 C68.1829101,152.171875 62.8606977,150.788425 58.7265625,148.021484 C54.5924272,145.254543 51.939459,141.039091 50.7675781,135.375 C48.3587119,139.020852 45.8847783,141.934234 43.3457031,144.115234 C40.8066279,146.296235 38.3164184,147.988926 35.875,149.193359 C33.4335815,150.397792 31.0573032,151.195311 28.7460937,151.585938 C26.4348843,151.976564 24.3027441,152.171875 22.3496094,152.171875 C19.3548027,152.171875 16.5553515,151.71615 13.9511719,150.804688 C11.3469922,149.893225 9.08464499,148.460947 7.16406248,146.507812 C5.24347996,144.554678 3.72982322,142.080744 2.62304685,139.085938 C1.51627048,136.091131 0.9628906,132.477886 0.9628906,128.246094 C0.9628906,126.423168 1.09309763,124.421235 1.3535156,122.240234 C1.61393357,120.059234 2.00455466,117.699231 2.5253906,115.160156 L16.0996094,51 L44.9082031,51 L30.5527344,118.96875 C30.1621074,120.661467 29.9667969,122.354158 29.9667969,124.046875 C29.9667969,125.218756 30.0644521,126.325516 30.2597656,127.367188 C30.4550791,128.408859 30.7805967,129.336584 31.2363281,130.150391 C31.6920595,130.964197 32.2942671,131.615232 33.0429687,132.103516 C33.7916704,132.591799 34.7519472,132.835938 35.9238281,132.835938 C37.8769629,132.835938 39.6673095,132.396489 41.2949219,131.517578 C42.9225342,130.638667 44.4036391,129.417977 45.7382812,127.855469 C47.0729233,126.292961 48.2447866,124.421235 49.2539062,122.240234 C50.2630259,120.059234 51.1581992,117.699231 51.9394531,115.160156 L65.5136719,51 Z M339.835647,134.618308 C340.110057,136.235326 340.498825,137.724532 341.001953,139.085938 C342.108729,142.080744 343.622386,144.554678 345.542969,146.507812 C347.463551,148.460947 349.725898,149.893225 352.330078,150.804688 C354.934258,151.71615 357.733709,152.171875 360.728516,152.171875 C362.486337,152.171875 364.48827,152.009116 366.734375,151.683594 C368.98048,151.358071 371.340482,150.739588 373.814453,149.828125 C376.288424,148.916662 378.843737,147.614592 381.480469,145.921875 C384.117201,144.229158 386.68879,142.015639 389.195312,139.28125 C391.701835,136.546861 394.110666,133.19403 396.421875,129.222656 C398.733084,125.251282 400.832673,120.563829 402.720703,115.160156 L394.322266,115.160156 C393.541012,117.699231 392.531907,120.059234 391.294922,122.240234 C390.057936,124.421235 388.658211,126.292961 387.095703,127.855469 C385.533195,129.417977 383.824228,130.638667 381.96875,131.517578 C380.113272,132.396489 378.208994,132.835938 376.255859,132.835938 C373.456366,132.835938 371.405605,132.298833 370.103516,131.224609 C368.801426,130.150385 368.150391,128.213556 368.150391,125.414062 C368.150391,124.372391 368.199218,123.314458 368.296875,122.240234 C368.394532,121.16601 368.606118,120.075526 368.931641,118.96875 L381.724609,59.0078125 L393.736328,59.0078125 L395.298828,51 L383.287109,51 L390.123047,19.359375 L360.533203,23.3632812 L354.478516,51 L347.935547,51 L346.275391,59.0078125 L352.916016,59.0078125 L340.904297,115.160156 C340.188147,117.699231 339.30925,120.124337 338.267578,122.435547 C337.225906,124.746756 336.021491,126.748689 334.654297,128.441406 C333.287103,130.134123 331.773446,131.485021 330.113281,132.494141 C328.453117,133.50326 326.646494,134.007812 324.693359,134.007812 C319.224582,134.007812 316.490234,131.143258 316.490234,125.414062 C316.490234,124.372391 316.555338,123.314458 316.685547,122.240234 C316.815756,121.16601 317.043618,120.075526 317.369141,118.96875 L331.724609,51 L302.916016,51 L300.767578,61.6445312 L300.767578,60.1796875 C300.767578,57.3150898 299.481784,54.9062598 296.910156,52.953125 C294.338529,50.9999902 290.220731,50.0234375 284.556641,50.0234375 C278.762341,50.0234375 273.456404,51.1139214 268.638672,53.2949219 C263.820939,55.4759224 259.507832,58.4055806 255.699219,62.0839844 C251.890606,65.7623882 248.570327,69.9941167 245.738281,74.7792969 C242.906236,79.5644771 240.546233,84.5611719 238.658203,89.7695312 C236.770173,94.9778906 235.370447,100.186172 234.458984,105.394531 C233.547521,110.602891 233.091797,115.485654 233.091797,120.042969 C233.091797,120.4347 233.09507,120.822446 233.101616,121.206207 C232.919778,121.589563 232.737469,121.966789 232.554687,122.337891 C231.480463,124.518891 230.292324,126.390617 228.990234,127.953125 C227.688145,129.515633 226.223315,130.720048 224.595703,131.566406 C222.968091,132.412765 221.080089,132.835938 218.931641,132.835938 C215.871729,132.835938 213.772141,132.054695 212.632812,130.492188 C211.493484,128.92968 210.923828,126.911471 210.923828,124.4375 C210.923828,122.54947 211.167966,120.352226 211.65625,117.845703 C212.144534,115.33918 212.746741,112.621108 213.462891,109.691406 C214.17904,106.761704 214.944006,103.701839 215.757812,100.511719 C216.571619,97.3215986 217.336585,94.1152505 218.052734,90.8925781 C218.768884,87.6699058 219.371091,84.5123853 219.859375,81.4199219 C220.347659,78.3274585 220.591797,75.4466279 220.591797,72.7773438 C220.591797,68.8059697 220.038417,65.3880352 218.931641,62.5234375 C217.824864,59.6588398 216.278656,57.3151133 214.292969,55.4921875 C212.307282,53.6692617 209.947279,52.3346396 207.212891,51.4882812 C204.478502,50.6419229 201.516292,50.21875 198.326172,50.21875 C196.763664,50.21875 195.087249,50.348957 193.296875,50.609375 C191.506501,50.869793 189.602224,51.3906211 187.583984,52.171875 C185.565745,52.9531289 183.498708,54.0761646 181.382812,55.5410156 C179.266916,57.0058667 177.134776,58.9426963 174.986328,61.3515625 L185.728516,10.9609375 L156.138672,14.9648438 L127.134766,151 L155.943359,151 L169.517578,86.8398438 C170.298832,84.3007686 171.210281,81.9082144 172.251953,79.6621094 C173.293625,77.4160044 174.465488,75.4628989 175.767578,73.8027344 C177.069668,72.1425698 178.501945,70.8242236 180.064453,69.8476562 C181.626961,68.8710889 183.319652,68.3828125 185.142578,68.3828125 C189.960311,68.3828125 192.369141,71.8007471 192.369141,78.6367188 C192.369141,81.8268389 191.89714,85.6353945 190.953125,90.0625 C190.00911,94.4896055 188.983729,99.0794033 187.876953,103.832031 C186.770177,108.584659 185.744796,113.223285 184.800781,117.748047 C183.856766,122.272809 183.384766,126.227848 183.384766,129.613281 C183.384766,132.477879 183.791663,135.261054 184.605469,137.962891 C185.419275,140.664727 186.737621,143.073557 188.560547,145.189453 C190.383473,147.305349 192.792303,148.998041 195.787109,150.267578 C198.781916,151.537116 202.492816,152.171875 206.919922,152.171875 C209.589206,152.171875 212.502588,151.781254 215.660156,151 C218.817724,150.218746 222.040348,148.542331 225.328125,145.970703 C228.615902,143.399076 231.871078,139.671899 235.09375,134.789062 C235.124011,134.743213 235.154253,134.697217 235.184476,134.651075 C235.23471,134.795828 235.285848,134.93948 235.337891,135.082031 C236.835294,139.183614 238.820951,142.503894 241.294922,145.042969 C243.768893,147.582044 246.600895,149.404942 249.791016,150.511719 C252.981136,151.618495 256.301415,152.171875 259.751953,152.171875 C263.3327,152.171875 266.604152,151.634771 269.566406,150.560547 C272.528661,149.486323 275.214181,148.086597 277.623047,146.361328 C280.031913,144.636059 282.212881,142.682954 284.166016,140.501953 C286.11915,138.320953 287.909497,136.091157 289.537109,133.8125 C290.253259,139.867218 292.287744,144.44074 295.640625,147.533203 C298.993506,150.625667 303.501925,152.171875 309.166016,152.171875 C310.923837,152.171875 312.876942,152.009116 315.025391,151.683594 C317.173839,151.358071 319.41991,150.739588 321.763672,149.828125 C324.107434,148.916662 326.516264,147.614592 328.990234,145.921875 C331.464205,144.229158 333.889311,142.015639 336.265625,139.28125 C337.476779,137.887594 338.666783,136.333284 339.835647,134.618308 Z M298.912109,70.0429688 C298.912109,69.4570283 298.781902,68.7246138 298.521484,67.8457031 C298.261066,66.9667925 297.821618,66.1204468 297.203125,65.3066406 C296.584632,64.4928345 295.754562,63.8092476 294.712891,63.2558594 C293.671219,62.7024712 292.336597,62.4257812 290.708984,62.4257812 C287.909491,62.4257812 285.256523,63.3372305 282.75,65.1601562 C280.243477,66.983082 277.948578,69.408188 275.865234,72.4355469 C273.781891,75.4629058 271.92644,78.8971162 270.298828,82.7382812 C268.671216,86.5794463 267.287766,90.5344849 266.148437,94.6035156 C265.009109,98.6725464 264.146487,102.676413 263.560547,106.615234 C262.974606,110.554056 262.681641,114.085922 262.681641,117.210938 C262.681641,121.052103 263.03971,124.014313 263.755859,126.097656 C264.472009,128.181 265.33463,129.727208 266.34375,130.736328 C267.35287,131.745448 268.443353,132.347655 269.615234,132.542969 C270.787115,132.738282 271.828771,132.835938 272.740234,132.835938 C274.237638,132.835938 275.816398,132.461592 277.476562,131.712891 C279.136727,130.964189 280.731763,129.857429 282.261719,128.392578 C283.791674,126.927727 285.1914,125.088553 286.460937,122.875 C287.730475,120.661447 288.690752,118.089858 289.341797,115.160156 L298.912109,70.0429688 Z M416.099609,14.5742188 C416.099609,12.5559795 416.441403,10.6842534 417.125,8.95898438 C417.808597,7.23371533 418.736322,5.75261035 419.908203,4.515625 C421.080084,3.27863965 422.47981,2.31836279 424.107422,1.63476562 C425.735034,0.951168457 427.525381,0.609375 429.478516,0.609375 C431.496755,0.609375 433.368481,0.951168457 435.09375,1.63476562 C436.819019,2.31836279 438.3164,3.27863965 439.585937,4.515625 C440.855475,5.75261035 441.832028,7.23371533 442.515625,8.95898438 C443.199222,10.6842534 443.541016,12.5559795 443.541016,14.5742188 C443.541016,17.1132939 442.987636,19.8476416 441.880859,22.7773438 C440.774083,25.7070459 439.195323,28.6367041 437.144531,31.5664063 C435.09374,34.4961084 432.60353,37.3932148 429.673828,40.2578125 C426.744126,43.1224102 423.423847,45.7591025 419.712891,48.1679688 L416.685547,45.2382812 C419.550145,42.3085791 421.77994,39.5742314 423.375,37.0351562 C424.97006,34.4960811 425.767578,32.4127686 425.767578,30.7851562 C425.767578,29.4830664 425.263026,28.3925825 424.253906,27.5136719 C423.244787,26.6347612 422.138027,25.6744844 420.933594,24.6328125 C419.729161,23.5911406 418.622401,22.3053462 417.613281,20.7753906 C416.604162,19.2454351 416.099609,17.1783984 416.099609,14.5742188 Z M520.298828,115.160156 C515.090469,121.214874 509.865912,126.211569 504.625,130.150391 C499.384088,134.089212 494.419945,137.425768 489.732422,140.160156 C487.649078,142.373709 485.321627,144.245435 482.75,145.775391 C480.178373,147.305346 477.509128,148.542313 474.742187,149.486328 C471.975247,150.430343 469.175795,151.11393 466.34375,151.537109 C463.511705,151.960289 460.826185,152.171875 458.287109,152.171875 C453.274063,152.171875 448.928404,151.406909 445.25,149.876953 C441.571596,148.346998 438.528007,146.36134 436.119141,143.919922 C433.710274,141.478503 431.936204,138.744156 430.796875,135.716797 C429.657546,132.689438 429.087891,129.645849 429.087891,126.585938 C429.087891,124.242176 429.397132,122.077484 430.015625,120.091797 C430.634118,118.10611 431.431636,116.332039 432.408203,114.769531 C433.38477,113.207023 434.507806,111.856125 435.777344,110.716797 C437.046881,109.577468 438.365228,108.682295 439.732422,108.03125 C445.331408,98.0051582 450.051413,88.0931479 453.892578,78.2949219 C457.733743,68.4966958 461.216781,58.6497891 464.341797,48.7539062 L493.931641,44.8476562 C494.322268,53.5065537 494.696613,61.0097339 495.054687,67.3574219 C495.412762,73.7051099 495.754556,79.2063569 496.080078,83.8613281 C496.405601,88.5162993 496.698566,92.4713379 496.958984,95.7265625 C497.219402,98.9817871 497.463541,101.862618 497.691406,104.369141 C497.919272,106.875664 498.082031,109.154287 498.179687,111.205078 C498.277344,113.25587 498.326172,115.38801 498.326172,117.601562 C498.326172,119.098966 498.277344,120.46614 498.179687,121.703125 C498.082031,122.94011 497.870444,124.111974 497.544922,125.21875 C500.474624,123.526033 503.127592,121.849618 505.503906,120.189453 C507.88022,118.529289 510.01236,116.852873 511.900391,115.160156 L520.298828,115.160156 Z M439.732422,122.386719 C439.732422,127.074242 440.660147,130.573556 442.515625,132.884766 C444.371103,135.195975 447.512348,136.351562 451.939453,136.351562 C454.153006,136.351562 456.301422,136.042321 458.384766,135.423828 C460.468109,134.805335 462.32356,133.763679 463.951172,132.298828 C465.578784,130.833977 466.880854,128.929699 467.857422,126.585938 C468.833989,124.242176 469.322266,121.312518 469.322266,117.796875 C469.322266,116.104158 469.273438,114.460294 469.175781,112.865234 C469.078124,111.270174 468.964193,109.577483 468.833984,107.787109 C468.703775,105.996736 468.524741,103.994803 468.296875,101.78125 C468.069009,99.5676973 467.808595,96.9961084 467.515625,94.0664062 C467.222655,91.1367041 466.913413,87.7513213 466.587891,83.9101562 C466.262368,80.0689912 465.904299,75.5768486 465.513672,70.4335938 C463.495433,76.944043 461.119154,83.259084 458.384766,89.3789062 C455.650377,95.4987285 452.623063,101.781218 449.302734,108.226562 C450.604824,108.942712 451.695308,109.854161 452.574219,110.960938 C453.453129,112.067714 453.892578,113.467439 453.892578,115.160156 C453.892578,116.397142 453.697268,117.601557 453.306641,118.773438 C452.916014,119.945318 452.330082,121.00325 451.548828,121.947266 C450.767574,122.891281 449.839849,123.639971 448.765625,124.193359 C447.691401,124.746748 446.47071,125.023438 445.103516,125.023438 C443.996739,125.023438 442.955083,124.860679 441.978516,124.535156 C441.001948,124.209634 440.253258,123.493495 439.732422,122.386719 Z"></path>
                </g>
            </g>
        </g>
    </g>
</svg>